<svg xmlns="http://www.w3.org/2000/svg" width="160" height="190" viewBox="0 0 160 190"><ellipse cx="80" cy="178" rx="38" ry="9" fill="#326f60" opacity=".14"/><path d="M59 140l-7 33h22l8-31M87 141l4 32h23l-10-37" fill="#2b5770"/><path d="M49 175q13-8 27-1v9H46ZM89 175q14-8 28 0v8H89Z" fill="#fff6dd" stroke="#30566a" stroke-width="3"/><rect x="44" y="89" width="68" height="55" rx="18" fill="#e5b449"/><path d="M58 91q21-11 44 0l10 53H49Z" fill="#3b94ae"/><path d="M64 94l15 15 18-15" fill="#fff7db"/><path d="M48 104l-13 28q-3 9 6 12q7 2 10-7l9-25M106 103l12 17q5 7 10 1l9-13" fill="none" stroke="#efba89" stroke-width="13" stroke-linecap="round"/><circle cx="80" cy="57" r="38" fill="#efba89"/><path d="M42 59C28 11 65 6 76 17C106-2 131 25 116 61L105 43Q79 55 68 35Q59 53 42 59" fill="#594337"/><path d="M46 32Q60 9 77 24Q94 8 108 27" fill="none" stroke="#78563e" stroke-width="7" stroke-linecap="round"/><path d="M62 63v3M93 63v3" stroke="#423e35" stroke-width="5" stroke-linecap="round"/><path d="M72 78q9 7 17-1" fill="none" stroke="#a25d46" stroke-width="3" stroke-linecap="round"/><circle cx="54" cy="74" r="5" fill="#e69b7b"/><circle cx="101" cy="74" r="5" fill="#e69b7b"/></svg>